<?xml version="1.0" encoding="UTF-8"?>
<svg id="Layer_1" xmlns="http://www.w3.org/2000/svg" version="1.1" viewBox="0 0 331 256">
  <!-- Generator: Adobe Illustrator 29.7.1, SVG Export Plug-In . SVG Version: 2.1.1 Build 8)  -->
  <defs>
    <style>
      .st0 {
        fill: #b6a069;
      }

      .st1 {
        isolation: isolate;
      }

      .st2 {
        fill: #b49670;
      }

      .st3 {
        fill: #704da2;
      }
    </style>
  </defs>
  <g>
    <path class="st0" d="M219.74,53.14c-.6-2.66-2.76-8.16-3.75-11.04-3.89,1.38-6.36,3.43-9.83,5.17-15.34,7.71-28.44,16.98-36.07,33.04-.75,1.57-1.41,3.18-1.98,4.83-8.88-19.37-17.66-26.89-36.51-36.92-2.66-1.42-7.86-4.64-10.16-5.5-.6-.22-1.21-.42-1.82-.6-1.24,5.34-3.62,10.51-4.69,15.91-.89,4.54-1.99,9.8-1.7,14.43,1.7,27.08,18.95,53.22,46.66,59.01,3.9.82,4.81-1.15,6.67-4.18,5.94-9.69,9.78-21.09,15.89-30.61,6.81-10.6,21.97-20.72,34.29-23.35-.3,5.24-.34,11.94-3.13,16.51-3.49.93-7.14,1.65-10.54,2.8-14.55,4.92-20.17,14.83-25.04,28.29-.56,1.25-.84,1.84-1.57,2.99-.98,1.54-5.17,5.19-5.17,6.8.34.46,1.06,1.03,1.65.97,24.58-2.58,44.78-25.68,47.97-49.56,1.31-9.84.73-19.41-1.16-28.99h0ZM155.63,124.8c-8.63-3.53-12.34-5.62-19.33-11.8-5.61-5.3-8.48-9.98-11.14-17.17,6.12.62,11.88,4.25,15.9,8.77,1.04,1.17,3.32,3.99,4.44,4.76.9-.08.64.07,1.13-.46.41-1.92-1.15-6.08-2.15-7.75-4.83-8.1-14.08-9.2-22.26-11.39-2.51-4.81-2.88-11.2-3.08-16.54,14.24,3.12,31.41,15.39,37.04,29.06,3.78,9.19,2.67,13.66-.56,22.5v.02ZM164.47,110.66c-.64-.38-.52-.54-.84-1.39-1.46-5.98-1.16-7.86-4.61-13.47-7.17-11.67-16.08-18.23-28.19-23.95-4.03-1.9-7.2-3.63-11.62-4.71.45-5.58,1.15-12.8,3.66-17.91,2.6.99,5.48,3.49,7.84,4.61,19.73,9.35,35.03,26.79,34.77,49.54-.02,1.55.13,6.16-1,7.29h-.01ZM207.69,102.76c-6.3,10.23-13.23,15.77-24.1,20.49l-.34.14-.21-.26c.44-1.65.94-3.35,1.47-4.98,3.46-10.59,13.89-20.07,24.97-22.08.45-.13.21-.1.74.04.29,1.62-1.66,5.22-2.54,6.64h0ZM213.45,68.19c-3.99,1.45-7.52,3.29-11.29,5.13-13.92,6.8-23.21,16.53-29.72,30.56l-1.41,3.28c-1.23-6.53-.05-12.15,1.53-18.55,1.49-6.02,3.74-9.2,7.08-14.09,8.56-12.56,20.22-17.71,32.95-25.01l.43.16c2.59,3.47,3.39,13.18,3.73,17.45-1.11.33-2.21.68-3.3,1.07h0Z"/>
    <path class="st2" d="M165.74,48.71c1.64.69,1.17,3.53,1.14,5.14l.12-3.45.23.16c.29,2.08.32,10.84-.31,12.76l-.55.57c-.27-.23-.31-.19-.43-.47.61-1.34.51-13.15-.2-14.71Z"/>
    <path class="st0" d="M179.61,30.76c.23-1.01.38-2.21,1.07-2.93,1.15-.63,1.77-.81,3.09-.96,2.34-4,2.82-6.42-2.53-7.21-1.12-1.77-11.87-13.39-13.35-13.71-.15-.03-.14-.03-.31-.05-2.1,1.84-4.49,4.67-6.47,6.74-1.89,1.98-4.99,4.8-6.43,6.99-7.21,1.25-6.78,4.84-.68,7.64,5.08,1.91-.51,8.79-1.53,12.19-2.96,9.88,1.21,16.56,8.2,23.23,2.48,2.37,4.74,6.33,7.32,8.36,1.38-.52,4.53-5.49,5.81-6.78,7.49-7.56,13.47-14.58,9.23-25.73-.94-2.48-2.44-5.25-3.41-7.79h-.01ZM176.96,27.91c-2.88-2.63-5.39-6.14-8.46-8.47-3.73-.14-6.2,7.29-9.73,7.9-2.39.31-2.11-4.11-1.15-4.96,3.4-3.03,6.51-7.42,9.97-10.22,2.39.51,10.21,9.73,12.02,12.01-.79,1.66-1.3,2.5-2.64,3.75h-.01Z"/>
    <path class="st0" d="M187.68,27.44c4.16.7,9.35,16.97,9.91,20.77l-2.95,1.16c-.86.26-1.28.48-2,0-.32-.9-.77-4.04-.86-5.13-.21-3.73-2.44-6.84-4.04-10.08-1.77-3.59-3.99-4.04-.06-6.71h0Z"/>
    <path class="st0" d="M147.29,27.39c5.91.02-1.88,10.67-2.41,13.16-.39,1.84-1.03,8.33-2.1,9.1l-1.01-.17c-1.14-.44-2.33-.79-3.5-1.14,1.18-6.19,4.78-16.32,9.01-20.96h.01Z"/>
    <path class="st3" d="M168,23.13c5.58,5.37,12.67,13.17,13,21.18.39,9.59-5.09,12.73-11.31,19.5.06-2.77-.37-12.4.38-14.33.55-.76,1.39-1.01,2.27-1.39.31-2.31.28-2.93-.04-5.16-4.34-2.14-4.42-1.85-8.89-.12-.11,1.3-.6,4.14.19,5.17.47.62,1.35.59,2.14.72,1.64.69,1.17,3.53,1.14,5.14l.12-3.45.23.16c.29,2.08.32,10.84-.31,12.76l-.55.57c-.27-.23-.31-.19-.43-.47-2.02-2.17-4.33-4.44-6.4-6.6-3.7-3.86-4.79-6.83-4.68-12.05.14-6.75,3.41-10.89,7.68-15.76,1.85-2.1,3.37-3.93,5.46-5.88h0Z"/>
  </g>
  <g class="st1">
    <g class="st1">
      <path class="st3" d="M111.05,230.72h-9.64v6.03c0,.25.06.44.18.57.12.13.32.24.61.31v.39h-5.22v-.39c.29-.08.5-.19.61-.32.11-.13.17-.32.17-.56v-14.17c0-.25-.06-.43-.17-.56-.11-.13-.32-.24-.61-.32v-.39h5.22v.39c-.29.07-.5.18-.61.31s-.17.32-.17.57v5.39h9.64v-5.39c0-.25-.06-.44-.17-.57-.11-.13-.32-.24-.61-.31v-.39h5.22v.39c-.29.08-.5.19-.61.32-.11.13-.17.32-.17.56v14.17c0,.25.06.43.17.56.11.13.32.24.61.32v.39h-5.22v-.39c.29-.07.49-.18.61-.31s.18-.32.18-.57v-6.03Z"/>
      <path class="st3" d="M122.93,230.69v4.58h10.75c.25,0,.43-.06.56-.17.13-.12.24-.32.32-.61h.39v4.32h-.39c-.08-.29-.19-.5-.32-.61-.13-.12-.32-.17-.56-.17h-15.19v-.39c.29-.08.5-.19.61-.32.11-.13.17-.32.17-.58v-14.14c0-.25-.06-.45-.17-.58-.11-.13-.32-.24-.61-.32v-.39h14.89c.25,0,.43-.06.56-.18.13-.12.24-.32.32-.61h.39v4.32h-.39c-.08-.29-.19-.49-.32-.61-.13-.12-.32-.18-.56-.18h-10.46v3.97h6.78c.25,0,.43-.06.56-.17.13-.11.24-.32.32-.61h.39v4.22h-.39c-.08-.29-.19-.49-.32-.61-.13-.12-.32-.18-.56-.18h-6.78Z"/>
      <path class="st3" d="M141.98,231.2v5.55c0,.25.06.44.18.57.12.13.32.24.61.31v.39h-5.22v-.39c.29-.08.5-.19.61-.32.11-.13.17-.32.17-.56v-14.16c0-.25-.06-.45-.17-.58-.11-.13-.32-.24-.61-.32v-.39h10.46c1.27,0,2.28.07,3.03.22.75.15,1.4.4,1.95.77.64.42,1.13,1,1.44,1.73.3.7.45,1.45.45,2.25,0,2.73-1.51,4.32-4.54,4.79l3.25,4.62c.57.81.99,1.33,1.25,1.56s.59.36.97.39v.39h-6.04v-.39c.42-.07.62-.21.62-.44,0-.15-.19-.5-.57-1.07l-3.39-4.92h-4.46ZM141.98,228.44h5.63c.83,0,1.42-.02,1.76-.07.34-.05.66-.15.94-.3.62-.34.93-.94.93-1.81s-.31-1.48-.93-1.81c-.29-.16-.61-.27-.94-.31s-.92-.07-1.77-.07h-5.63v4.38Z"/>
      <path class="st3" d="M158.61,236.73v-14.16c0-.25-.06-.43-.17-.56-.11-.13-.32-.24-.61-.32v-.39h5.22v.39c-.29.07-.5.18-.61.31s-.17.32-.17.57v14.16c0,.25.06.45.18.58.12.13.32.24.61.31v.39h-5.22v-.39c.29-.08.5-.19.61-.32.11-.13.17-.32.17-.58Z"/>
      <path class="st3" d="M174.82,224.06v12.68c0,.25.06.45.17.58s.32.24.61.32v.39h-5.22v-.39c.29-.08.5-.19.61-.32s.17-.32.17-.58v-12.68h-5.19c-.24,0-.43.06-.56.17-.13.11-.24.32-.32.62h-.39v-4.32h.39c.09.3.2.5.32.62.13.11.31.17.56.17h14.02c.25,0,.44-.06.58-.17.13-.11.24-.32.32-.62h.39v4.32h-.39c-.08-.3-.19-.5-.32-.62-.13-.11-.32-.17-.58-.17h-5.18Z"/>
      <path class="st3" d="M193.33,233.76h-7.6l-1.12,2.35c-.16.33-.23.58-.23.77,0,.36.27.61.82.75v.39h-5.53v-.39c.33-.07.58-.18.75-.34.17-.16.37-.48.59-.96l6.15-12.85c.2-.41.29-.73.29-.98,0-.38-.24-.64-.71-.81v-.39h5.93v.39c-.48.14-.72.38-.72.72,0,.24.08.51.23.81l6.37,12.88c.27.55.51.92.71,1.12.2.2.48.33.82.4v.39h-6.15v-.39c.54-.09.81-.34.81-.76,0-.17-.08-.42-.25-.76l-1.15-2.35ZM192.28,231.47l-2.71-5.96-2.75,5.96h5.46Z"/>
      <path class="st3" d="M215.1,232.01h-4.13c-.25,0-.44.06-.57.17-.13.12-.23.32-.31.61h-.39v-3.89h.39c.08.3.19.51.31.62.13.11.32.16.57.16h7.92v.39c-.29.08-.49.19-.61.32-.12.13-.17.32-.17.58v3.43c0,.25.06.45.17.58.11.13.32.24.62.32v.31c-3.17,1.81-6.25,2.72-9.23,2.72-2.7,0-4.9-.64-6.61-1.92-2.15-1.62-3.22-3.86-3.22-6.73,0-2.68.96-4.81,2.87-6.39,1.81-1.5,4.22-2.25,7.23-2.25.96,0,1.86.09,2.7.26s1.81.47,2.88.89c.56.22.95.33,1.19.33.17,0,.37-.09.6-.28l.34.18-1.97,4-.35-.18c0-.27-.04-.46-.11-.58s-.21-.26-.44-.43c-.5-.37-1.23-.69-2.19-.96-.96-.27-1.87-.4-2.73-.4-1.75,0-3.19.49-4.34,1.47-1.3,1.11-1.95,2.57-1.95,4.39s.63,3.19,1.9,4.27c1.16.99,2.69,1.49,4.58,1.49.92,0,1.83-.11,2.73-.32s1.67-.5,2.33-.87v-2.28Z"/>
      <path class="st3" d="M226.18,230.69v4.58h10.75c.25,0,.43-.06.56-.17.13-.12.24-.32.32-.61h.39v4.32h-.39c-.08-.29-.19-.5-.32-.61s-.32-.17-.56-.17h-15.18v-.39c.29-.08.5-.19.61-.32.11-.13.17-.32.17-.58v-14.14c0-.25-.06-.45-.17-.58-.12-.13-.32-.24-.61-.32v-.39h14.89c.25,0,.43-.06.56-.18.13-.12.24-.32.32-.61h.39v4.32h-.39c-.08-.29-.19-.49-.32-.61-.13-.12-.32-.18-.56-.18h-10.46v3.97h6.78c.25,0,.43-.06.56-.17.13-.11.24-.32.32-.61h.39v4.22h-.39c-.08-.29-.19-.49-.32-.61-.13-.12-.32-.18-.56-.18h-6.78Z"/>
    </g>
  </g>
  <g class="st1">
    <g class="st1">
      <path class="st3" d="M70.07,189.36l14.51-32.1c.61-1.36.92-2.42.92-3.17,0-1.15-.88-1.9-2.64-2.24v-1.28h18.72v1.28c-1.18.16-1.99.49-2.45,1-.45.51-1.24,1.98-2.36,4.41l-18.96,40.91c-.8,1.74-1.2,2.87-1.2,3.41,0,1.36.84,2.16,2.52,2.4v1.28h-18.84v-1.28c1.68-.24,2.52-1.05,2.52-2.44,0-.51-.4-1.63-1.2-3.37l-18.96-40.91c-1.12-2.43-1.91-3.9-2.37-4.41-.45-.51-1.27-.84-2.44-1v-1.28h19.43v1.28c-1.76.35-2.64,1.09-2.64,2.24,0,.75.31,1.8.92,3.17l14.53,32.1Z"/>
      <path class="st3" d="M120.73,181.26v14.98h35.18c.8,0,1.42-.19,1.84-.56s.77-1.04,1.04-2h1.28v14.14h-1.28c-.27-.96-.61-1.63-1.04-2s-1.04-.56-1.84-.56h-49.68v-1.28c.96-.27,1.63-.61,2-1.04.37-.43.56-1.06.56-1.88v-46.27c0-.83-.19-1.46-.56-1.88-.37-.43-1.04-.77-2-1.04v-1.28h48.72c.8,0,1.42-.19,1.84-.57.43-.38.77-1.05,1.04-1.99h1.28v14.14h-1.28c-.27-.95-.61-1.61-1.04-1.99s-1.04-.57-1.84-.57h-34.21v12.98h22.2c.8,0,1.42-.19,1.84-.56.43-.37.77-1.04,1.04-2h1.28v13.82h-1.28c-.27-.93-.61-1.6-1.04-1.98-.43-.39-1.04-.58-1.84-.58h-22.2Z"/>
      <path class="st3" d="M183.07,182.94v18.15c0,.8.19,1.42.58,1.86.39.44,1.05.78,1.98,1.02v1.28h-17.07v-1.28c.96-.27,1.63-.61,2-1.04.37-.43.56-1.04.56-1.84v-46.31c0-.83-.19-1.46-.56-1.88-.38-.43-1.04-.77-2-1.04v-1.28h34.21c4.17,0,7.47.24,9.92.72,2.44.48,4.57,1.32,6.39,2.52,2.11,1.39,3.69,3.27,4.73,5.65.99,2.3,1.48,4.75,1.48,7.37,0,8.92-4.96,14.14-14.86,15.67l10.62,15.1c1.87,2.64,3.24,4.35,4.11,5.11.87.76,1.93,1.18,3.19,1.26v1.28h-19.76v-1.28c1.36-.21,2.04-.69,2.04-1.44,0-.48-.63-1.64-1.88-3.49l-11.08-16.11h-14.6ZM183.07,173.93h18.43c2.72,0,4.65-.08,5.77-.24,1.12-.16,2.15-.49,3.08-1,2.03-1.09,3.04-3.07,3.04-5.93s-1.01-4.83-3.04-5.93c-.96-.53-1.98-.87-3.06-1.02-1.08-.15-3.01-.22-5.79-.22h-18.43v14.34Z"/>
      <path class="st3" d="M274.97,191.32h-24.85l-3.68,7.69c-.51,1.07-.76,1.91-.76,2.52,0,1.18.89,1.99,2.68,2.44v1.28h-18.09v-1.28c1.07-.21,1.88-.59,2.44-1.12.56-.53,1.2-1.58,1.92-3.12l20.11-42.03c.64-1.33.96-2.4.96-3.21,0-1.23-.77-2.11-2.32-2.64v-1.28h19.39v1.28c-1.58.45-2.36,1.24-2.36,2.36,0,.78.25,1.66.76,2.64l20.83,42.15c.88,1.79,1.66,3.01,2.32,3.67s1.56,1.09,2.68,1.3v1.28h-20.13v-1.28c1.77-.29,2.65-1.12,2.65-2.48,0-.56-.27-1.39-.8-2.48l-3.76-7.69ZM271.54,183.83l-8.87-19.48-9.01,19.48h17.88Z"/>
    </g>
  </g>
</svg>