<svg version="1.1" xmlns="http://www.w3.org/2000/svg" style="display: block;" viewBox="0 0 1324 1024" width="331" height="256" preserveAspectRatio="none">
<path transform="translate(0,0)" fill="rgb(255,255,255)" d="M 0 0 L 1324 0 L 1324 1024 L 0 1024 L 0 0 z"/>
<path transform="translate(0,0)" fill="rgb(182,160,105)" d="M 484.639 168.434 C 487.101 169.142 489.535 169.941 491.938 170.829 C 501.142 174.264 521.907 187.168 532.566 192.843 C 607.937 232.98 643.087 263.04 678.587 340.531 C 680.846 333.944 683.487 327.494 686.494 321.214 C 717.011 256.982 769.425 219.931 830.787 189.073 C 844.672 182.09 854.552 173.889 870.105 168.386 C 874.076 179.907 882.7 201.901 885.108 212.555 C 892.634 250.879 894.983 289.152 889.733 328.514 C 876.993 424.036 796.194 516.44 697.865 526.765 C 695.516 527.011 692.62 524.739 691.274 522.887 C 691.271 516.446 708.036 501.836 711.959 495.671 C 714.894 491.059 716.005 488.688 718.25 483.693 C 737.72 429.855 760.214 390.236 818.414 370.539 C 832.02 365.934 846.618 363.032 860.56 359.329 C 871.73 341.035 871.881 314.256 873.071 293.292 C 823.768 303.808 763.128 344.305 735.907 386.701 C 711.469 424.763 696.126 470.364 672.367 509.127 C 664.944 521.238 661.305 529.103 645.694 525.84 C 534.854 502.673 465.86 398.125 459.064 289.793 C 457.907 271.266 462.303 250.214 465.866 232.059 C 470.139 210.471 479.691 189.801 484.639 168.434 z"/>
<path transform="translate(0,0)" fill="rgb(255,255,255)" d="M 482.728 292.957 C 539.708 305.43 608.368 354.508 630.879 409.198 C 646.006 445.949 641.579 463.825 628.641 499.212 C 594.14 485.104 579.268 476.72 551.34 452.024 C 528.911 430.828 517.418 412.085 506.775 383.363 C 531.254 385.861 554.287 400.348 570.393 418.456 C 574.547 423.128 583.692 434.411 588.165 437.516 C 591.764 437.202 590.71 437.804 592.685 435.688 C 594.324 428.004 588.066 411.367 584.081 404.686 C 564.747 372.271 527.748 367.87 495.044 359.112 C 484.99 339.881 483.544 314.301 482.728 292.957 z"/>
<path transform="translate(0,0)" fill="rgb(255,255,255)" d="M 497.573 196.895 C 507.959 200.857 519.504 210.858 528.931 215.327 C 607.864 252.745 669.06 322.498 668.014 413.477 C 667.943 419.694 668.527 438.103 664.001 442.63 C 661.434 441.106 661.904 440.483 660.636 437.081 C 654.789 413.148 656.001 405.656 642.201 383.209 C 613.507 336.537 577.877 310.275 529.428 287.391 C 513.303 279.775 500.625 272.874 482.941 268.541 C 484.743 246.221 487.533 217.321 497.573 196.895 z"/>
<path transform="translate(0,0)" fill="rgb(255,255,255)" d="M 856.512 198.045 L 858.225 198.695 C 868.581 212.591 871.774 251.413 873.134 268.493 C 868.701 269.798 864.304 271.222 859.947 272.762 C 843.995 278.566 829.873 285.94 814.799 293.301 C 759.133 320.485 721.975 359.421 695.905 415.558 L 690.267 428.68 C 685.341 402.548 690.072 380.092 696.406 354.466 C 702.362 330.373 711.379 317.676 724.718 298.101 C 758.962 247.846 805.608 227.27 856.512 198.045 z"/>
<path transform="translate(0,0)" fill="rgb(255,255,255)" d="M 844.106 384.302 C 845.893 383.78 844.947 383.894 847.072 384.453 C 848.236 390.948 840.432 405.316 836.913 411.031 C 811.721 451.935 784.01 474.102 740.529 492.993 L 739.178 493.558 L 738.343 492.517 C 740.091 485.904 742.091 479.1 744.214 472.61 C 758.066 430.253 799.778 392.347 844.106 384.302 z"/>
<path transform="translate(0,0)" fill="rgb(112,77,162)" d="M 697.284 607.225 C 704.98 608.422 720.837 608.074 729.171 608.071 L 793.064 608.029 C 833.742 608.024 891.007 603.048 900.006 655.405 C 906.59 693.71 882.768 718.307 846.795 725.123 C 866.603 743.495 880.795 777.367 899.088 797.297 C 903.715 802.339 908.799 801 913.341 804.876 L 912.981 806.329 C 907.912 807.553 869.955 807.142 861.75 807.162 C 856.245 807.221 849.458 807.514 844.105 806.789 L 843.177 805.455 C 843.347 801.794 846.241 799.607 846.582 796.383 C 847.281 789.761 809.088 734.232 802.312 726.574 C 785.369 725.681 764.19 726.237 746.991 726.336 C 747 738.013 746.284 791.035 747.588 798.783 C 750.766 802.594 754.072 798.437 758.135 803.504 L 757.508 805.067 C 748.055 807.929 708.073 807.121 695.997 807.079 C 698.189 804.111 701.235 800.771 703.699 797.926 C 704.393 789.209 704.734 779.486 704.594 770.713 C 703.823 722.412 705.928 673.831 703.545 625.62 C 703.198 618.589 700.645 613.206 697.284 607.225 z"/>
<path transform="translate(0,0)" fill="rgb(255,255,255)" d="M 768.656 641.5 C 789.677 641.357 812.567 640.809 833.506 641.9 C 844.901 642.493 851.343 648.955 857.802 657.291 C 860.387 674.003 855.266 689.019 836.929 692.037 C 815.321 695.136 770.096 693.95 747.181 693.808 C 746.656 677.2 747.028 658.663 746.998 641.907 C 754.181 641.686 761.463 641.622 768.656 641.5 z"/>
<path transform="translate(0,0)" fill="rgb(182,160,105)" d="M 676.414 23.5891 C 677.102 23.6641 677.056 23.6377 677.657 23.7707 C 683.576 25.0804 726.602 71.5396 731.066 78.6223 C 752.492 81.801 750.562 91.4707 741.203 107.466 C 735.95 108.062 733.458 108.759 728.858 111.293 C 726.085 114.178 725.493 119.011 724.582 123.033 C 728.445 133.177 734.453 144.271 738.222 154.195 C 755.164 198.801 731.277 226.889 701.303 257.11 C 696.185 262.271 683.57 282.137 678.066 284.227 C 667.742 276.117 658.682 260.252 648.777 250.78 C 620.843 224.067 604.158 197.376 615.99 157.84 C 620.062 144.236 642.433 116.736 622.119 109.081 C 597.702 97.8825 596.008 83.5187 624.828 78.5054 C 630.585 69.7376 642.959 58.4645 650.533 50.5438 C 658.464 42.2502 668.031 30.9616 676.414 23.5891 z"/>
<path transform="translate(0,0)" fill="rgb(112,77,162)" d="M 678.146 92.5305 C 700.448 114.023 728.84 145.192 730.14 177.27 C 731.695 215.64 709.772 228.185 684.913 255.257 C 685.151 244.175 683.425 205.65 686.421 197.948 C 688.639 194.9 691.984 193.911 695.496 192.403 C 696.741 183.144 696.629 180.697 695.333 171.747 C 677.954 163.177 677.641 164.36 659.755 171.286 C 659.297 176.505 657.367 187.833 660.525 191.948 C 662.424 194.422 665.923 194.315 669.096 194.833 C 675.651 197.576 673.764 208.933 673.643 215.397 L 674.113 201.578 L 675.045 202.214 C 676.189 210.54 676.326 245.573 673.787 253.248 L 671.601 255.542 C 670.523 254.633 670.371 254.79 669.889 253.671 C 661.815 244.979 652.557 235.906 644.293 227.276 C 629.492 211.821 625.141 199.965 625.581 179.09 C 626.151 152.084 639.218 135.533 656.307 116.06 C 663.689 107.649 669.776 100.353 678.146 92.5305 z"/>
<path transform="translate(0,0)" fill="rgb(180,150,112)" d="M 669.096 194.833 C 675.651 197.576 673.764 208.933 673.643 215.397 L 674.113 201.578 L 675.045 202.214 C 676.189 210.54 676.326 245.573 673.787 253.248 L 671.601 255.542 C 670.523 254.633 670.371 254.79 669.889 253.671 C 672.345 248.307 671.94 201.089 669.096 194.833 z"/>
<path transform="translate(0,0)" fill="rgb(255,255,255)" d="M 676.466 48.6011 C 686.029 50.6507 717.306 87.5102 724.53 96.6393 C 721.362 103.286 719.349 106.643 713.968 111.651 C 702.452 101.13 692.39 87.1073 680.122 77.7611 C 665.191 77.1828 655.322 106.928 641.185 109.35 C 631.622 110.571 632.738 92.9239 636.578 89.5002 C 650.179 77.3746 662.608 59.8392 676.466 48.6011 z"/>
<path transform="translate(0,0)" fill="rgb(112,77,162)" d="M 629.855 596.721 L 629.646 645.432 C 629.578 648.265 629.738 649.547 628.328 652.088 L 627.304 652.097 C 625.319 648.568 625.993 646.009 626.418 641.95 C 616.356 642.844 600.964 641.378 590.075 641.546 C 557.751 642.047 523.135 640.434 491.018 641.741 L 490.984 687.909 C 503.982 687.668 576.8 688.885 582.56 685.068 C 583.767 687.712 583.957 688.369 586.088 690.304 C 586.236 703.668 586.314 717.033 586.321 730.398 L 580.031 724.264 C 563.538 720.709 511.497 721.995 491.052 721.986 L 490.929 773.976 L 588.642 774.03 C 599.124 774.03 612.837 774.248 623.493 773.628 C 626.174 773.471 629.955 767.9 631.51 765.503 C 632.344 769.406 633.154 814.682 631.934 816.074 C 628.598 814.094 627.675 809.633 624.973 807.819 C 622.103 805.892 497.898 807.158 481.835 807.162 C 469.013 807.166 453.225 808.842 440.718 806.352 L 440.045 804.472 C 441.356 801.974 444.971 800.385 447.623 798.868 C 447.892 795.832 448.066 792.604 448.114 789.549 C 448.797 740.185 448.507 690.737 448.367 641.361 C 448.321 625.069 449.9 619.473 438.515 607.791 C 497.297 608.633 559.669 608.761 618.511 606.661 C 623.889 606.469 627.012 600.826 629.855 596.721 z"/>
<path transform="translate(0,0)" fill="rgb(76,65,113)" d="M 626.418 641.95 L 628.258 641.277 C 628.733 642.658 629.196 644.043 629.646 645.432 C 629.578 648.265 629.738 649.547 628.328 652.088 L 627.304 652.097 C 625.319 648.568 625.993 646.009 626.418 641.95 z"/>
<path transform="translate(0,0)" fill="rgb(112,77,162)" d="M 1040.23 619.806 C 1037.51 617.288 1032.53 612.58 1032.08 608.937 L 1033.06 607.962 C 1041.56 608.009 1098.82 607.117 1102.53 608.58 C 1101.44 613.838 1095.94 616.829 1091.49 619.841 C 1116.85 678.138 1148.86 735.21 1175.88 792.909 C 1181.15 804.151 1184.53 801.058 1196.15 804.428 C 1193.75 805.182 1191.29 805.734 1188.78 805.969 C 1165.59 808.131 1142.28 806.615 1119.04 807.21 C 1118.59 806.812 1118.15 806.414 1117.7 806.016 L 1118.06 803.594 C 1120.87 800.37 1125.6 798.812 1129.62 797.098 C 1122.46 781.005 1117.78 771.482 1108.77 756.565 C 1083.26 754.933 1045.74 756.196 1018.77 755.966 L 1018.66 756.375 C 1014.6 770.729 1007.68 781.315 1003.45 795.242 C 1002.85 797.196 1003.95 797.938 1005.09 799.185 C 1009 800.439 1011.39 800.919 1014.46 803.594 L 1014.81 805.027 L 1013.36 805.924 C 1006.22 807.152 950.058 808.487 947.332 805.081 C 948.93 802.822 951.136 802.397 953.696 801.422 C 954.117 801.261 954.734 801.063 955.151 800.85 C 960.855 797.927 1024.34 662.182 1030.86 646.898 C 1034.66 638.004 1037.81 629.173 1040.23 619.806 z"/>
<path transform="translate(0,0)" fill="rgb(115,79,170)" d="M 1005.09 799.185 C 1009 800.439 1011.39 800.919 1014.46 803.594 L 1014.81 805.027 L 1013.36 805.924 C 1010.55 805.311 1008.76 804.86 1005.99 803.993 C 1004.18 801.31 1004.45 802.587 1005.09 799.185 z"/>
<path transform="translate(0,0)" fill="rgb(255,255,255)" d="M 1064.62 659.443 C 1070.43 661.614 1092.03 718.334 1095.29 728.089 L 1064.42 728.119 C 1053.83 728.066 1043.24 728.14 1032.66 728.34 C 1042.84 705.625 1055.53 682.424 1064.62 659.443 z"/>
<path transform="translate(0,0)" fill="rgb(112,77,162)" d="M 160.069 607.341 C 181.789 608.998 212.672 608.07 235.045 607.991 C 230.649 610.691 224.866 613.716 222.821 618.738 C 218.861 628.461 257.863 706.173 263.24 718.261 C 267.749 728.399 271.54 738.905 275.789 749.161 C 287.906 733.216 298.259 703.282 306.833 684.025 C 316.173 663.047 327.103 640.053 335.382 618.848 C 331.8 616.535 324.78 612.988 324.414 608.698 C 326.633 607.636 384.005 607.989 392.071 607.335 C 377.996 619.685 369.878 642.376 362.043 659.316 L 334.226 719.188 C 322.579 744.181 309.491 768.519 300.1 794.602 C 299.304 796.814 300.099 797.462 301.178 799.191 C 304.95 800.667 308.103 801.557 310.958 804.397 C 310.531 805.935 310.9 805.208 309.38 806.336 C 300.385 807.261 248.602 808.762 243.095 805.021 L 243.071 803.174 C 245.496 800.21 249.171 799.417 252.842 798.205 C 238.582 762.253 221.89 725.271 205.037 690.415 C 195.047 669.755 176.445 621.569 160.069 607.341 z"/>
<path transform="translate(0,0)" fill="rgb(115,79,170)" d="M 301.178 799.191 C 304.95 800.667 308.103 801.557 310.958 804.397 C 307.081 805.212 302.286 806.317 300.09 802.598 L 301.178 799.191 z"/>
<path transform="translate(0,0)" fill="rgb(112,77,162)" d="M 559.917 883.732 L 573.674 883.616 C 586.719 884.369 607.055 883.592 618.859 886.021 C 631.582 889.65 627.427 903.145 626.382 913.938 C 620.88 915.535 615.358 917.059 609.816 918.512 C 614.917 930.925 622.045 939.905 631.157 949.8 C 624.185 949.411 617.22 948.914 610.263 948.309 C 605.611 939.964 597.938 927.012 595.942 918.106 C 591.251 918.078 579.99 918.299 576.001 917.295 C 575.931 926.763 575.735 940.044 577.236 949.112 C 571.656 949.032 565.861 948.766 560.263 948.579 C 561.394 934.842 561.574 897.292 559.917 883.732 z"/>
<path transform="translate(0,0)" fill="rgb(115,79,170)" d="M 618.859 886.021 C 631.582 889.65 627.427 903.145 626.382 913.938 C 620.88 915.535 615.358 917.059 609.816 918.512 C 614.917 930.925 622.045 939.905 631.157 949.8 C 624.185 949.411 617.22 948.914 610.263 948.309 C 605.611 939.964 597.938 927.012 595.942 918.106 C 591.251 918.078 579.99 918.299 576.001 917.295 C 577.17 916.958 587.636 916.465 589.476 916.345 L 580.752 916.148 L 581.541 914.823 L 589.138 913.151 C 583.586 913.369 581.423 913.126 575.899 912.32 C 590.987 910.968 621.51 917.708 612.053 890.17 L 618.859 886.021 z"/>
<path transform="translate(0,0)" fill="rgb(255,255,255)" d="M 575.993 889.844 L 597.745 889.678 L 612.053 890.17 C 621.51 917.708 590.987 910.968 575.899 912.32 C 575.655 905.244 575.925 897.009 575.993 889.844 z"/>
<path transform="translate(0,0)" fill="rgb(72,40,125)" d="M 573.674 883.616 C 586.719 884.369 607.055 883.592 618.859 886.021 L 612.053 890.17 L 597.745 889.678 C 590.576 884.735 579.77 894.953 573.674 883.616 z"/>
<path transform="translate(0,0)" fill="rgb(115,79,170)" d="M 761.203 882.157 C 763.763 882.093 768.12 881.714 770.447 882.765 C 773.523 884.155 800.832 940.814 804.092 948.884 C 798.363 949.067 792.129 948.979 786.358 948.999 C 783.717 935.547 784.957 930.377 769.703 930.721 L 747.619 930.984 C 745.859 937.59 744.894 942.35 743.75 949.098 L 726.925 949.082 C 738.592 933.427 752.361 890.674 761.203 882.157 z"/>
<path transform="translate(0,0)" fill="rgb(255,255,255)" d="M 763.468 899.514 C 767.217 901.333 774.807 915.373 772.507 919.759 L 769.25 920.094 L 755.276 920.002 C 758.085 913.398 760.796 906.219 763.468 899.514 z"/>
<path transform="translate(0,0)" fill="rgb(115,79,170)" d="M 897.902 883.387 L 911.657 883.84 C 918.615 883.96 956.745 882.993 959.698 885.365 L 959.638 887.59 C 955.98 890.271 945.364 889.309 940.494 889.172 C 931.35 889.635 922.198 889.929 913.042 890.053 L 912.956 908.867 L 932.352 908.999 C 936.431 908.766 941.726 907.94 945.165 909.795 L 946.458 912.007 C 941.576 917.228 928.968 916.09 922.125 916.069 C 917.02 916.285 916.816 915.391 913.856 918.077 C 911.057 925.525 913.025 933.801 912.983 942.402 C 927.741 942.439 943.909 942.134 958.542 942.548 L 960.479 942.915 C 960.933 945.068 960.933 944.947 960.176 947.019 C 950.79 948.534 909.825 948.182 897.597 948.545 C 898.614 925.81 898.454 906.043 897.902 883.387 z"/>
<path transform="translate(0,0)" fill="rgb(72,40,125)" d="M 911.657 883.84 C 918.615 883.96 956.745 882.993 959.698 885.365 L 959.638 887.59 C 955.98 890.271 945.364 889.309 940.494 889.172 C 934.155 888.378 927.386 889.133 920.966 888.287 C 916.124 887.65 915.749 886.133 911.657 883.84 z"/>
<path transform="translate(0,0)" fill="rgb(72,40,125)" d="M 958.542 942.548 L 960.479 942.915 C 960.933 945.068 960.933 944.947 960.176 947.019 C 952.498 946.339 915.357 947.491 912.128 945.847 C 919.829 940.708 944.62 944.368 957.574 942.681 L 958.542 942.548 z"/>
<path transform="translate(0,0)" fill="rgb(95,54,164)" d="M 932.352 908.999 C 936.431 908.766 941.726 907.94 945.165 909.795 L 946.458 912.007 C 941.576 917.228 928.968 916.09 922.125 916.069 L 919.107 913.773 L 919.493 912.208 C 922.447 910.298 927.022 910.674 931.613 909.235 L 932.352 908.999 z"/>
<path transform="translate(0,0)" fill="rgb(182,160,105)" d="M 756.846 109.756 C 773.492 112.56 794.261 177.637 796.491 192.842 L 784.69 197.468 C 781.268 198.514 779.578 199.397 776.705 197.435 C 775.408 193.832 773.624 181.261 773.257 176.895 C 772.414 161.964 763.498 149.538 757.097 136.588 C 750.003 122.235 741.143 120.415 756.846 109.756 z"/>
<path transform="translate(0,0)" fill="rgb(182,160,105)" d="M 595.311 109.557 C 618.941 109.648 587.778 152.225 585.682 162.212 C 584.14 169.563 581.56 195.52 577.28 198.619 L 573.258 197.957 C 568.702 196.179 563.939 194.814 559.256 193.386 C 563.959 168.622 578.369 128.106 595.311 109.557 z"/>
<path transform="translate(0,0)" fill="rgb(112,77,162)" d="M 483.914 883.164 C 490.06 883.064 495.43 883.503 501.545 883.953 C 510.809 883.935 539.102 882.909 546.083 885.672 L 546.211 886.692 C 538.533 889.743 535.309 889.253 527.1 889.167 C 517.702 889.935 507.727 889.904 498.259 890.042 C 498.368 896.047 498.397 902.225 498.698 908.21 C 505.38 908.54 523.261 907.492 529.749 909.13 C 530.345 909.281 530.931 911.379 531.139 912.229 C 530.413 913.478 529.814 915.181 528.793 915.355 C 520.678 916.735 509.706 916.247 501.441 916.236 L 499.235 916.7 C 497.307 920.845 498.444 938.189 499.161 942.825 L 497.662 948.102 C 493.132 948.414 488.523 948.436 483.978 948.516 C 484.392 926.734 484.371 904.946 483.914 883.164 z"/>
<path transform="translate(0,0)" fill="rgb(72,40,125)" d="M 501.545 883.953 C 510.809 883.935 539.102 882.909 546.083 885.672 L 546.211 886.692 C 538.533 889.743 535.309 889.253 527.1 889.167 C 519.745 888.15 506.987 890.465 501.888 887.067 L 501.545 883.953 z"/>
<path transform="translate(0,0)" fill="rgb(95,54,164)" d="M 501.441 916.236 C 510.574 907.663 519.835 908.829 531.139 912.229 C 530.413 913.478 529.814 915.181 528.793 915.355 C 520.678 916.735 509.706 916.247 501.441 916.236 z"/>
<path transform="translate(0,0)" fill="rgb(112,77,162)" d="M 397.63 882.917 C 403.49 883.018 406.801 883.117 412.672 882.298 C 411.901 890.656 412.164 900.142 412.201 908.619 C 424.909 909.325 439.034 908.261 452.366 908.847 L 452.459 910.247 C 453.503 912.87 453.483 913.208 452.882 915.975 C 439.858 915.948 426.834 916.029 413.811 916.216 L 412.408 917.631 C 411.292 926.563 412.396 939.663 413.115 948.686 L 397.324 948.969 C 398.938 932.531 397.849 900.692 397.63 882.917 z"/>
<path transform="translate(0,0)" fill="rgb(95,54,164)" d="M 413.811 916.216 C 414.096 915.55 414.985 913.314 415.411 913.068 C 423.024 908.656 444.574 910.223 452.459 910.247 C 453.503 912.87 453.483 913.208 452.882 915.975 C 439.858 915.948 426.834 916.029 413.811 916.216 z"/>
<path transform="translate(0,0)" fill="rgb(112,77,162)" d="M 829.738 948.994 C 813.442 943.367 805.281 927.497 807.84 910.802 C 809.19 901.588 814.218 893.316 821.774 887.874 C 831.709 880.791 842.687 879.855 854.407 881.81 C 862.458 883.138 867.775 885.353 875.238 888.647 C 874.483 891.402 873.101 898.087 871.268 899.631 C 868.64 897.423 868.765 894.298 868.23 893.807 C 863.478 889.451 851.076 887.748 845.363 886.903 C 816.053 894.436 811.095 921.873 832.117 941.348 C 831.506 944.795 831.447 945.898 829.738 948.994 z"/>
<path transform="translate(0,0)" fill="rgb(115,79,170)" d="M 854.407 881.81 C 862.458 883.138 867.775 885.353 875.238 888.647 C 874.483 891.402 873.101 898.087 871.268 899.631 C 868.64 897.423 868.765 894.298 868.23 893.807 C 863.478 889.451 851.076 887.748 845.363 886.903 C 848.891 883.554 857.589 887.542 863.586 887.439 C 863.152 883.594 849.179 884.293 847.528 882.501 L 854.407 881.81 z"/>
<path transform="translate(0,0)" fill="rgb(115,79,170)" d="M 642.674 882.992 L 658.093 883.085 C 656.137 895.478 657.272 935.33 657.828 948.69 C 655.162 949.232 646.044 948.967 642.851 948.947 C 643.14 926.962 643.081 904.975 642.674 882.992 z"/>
<path transform="translate(0,0)" fill="rgb(115,79,170)" d="M 451.832 883.422 L 465.678 882.571 C 464.337 896.996 464.125 934.903 466.306 949.078 L 451.324 948.86 C 452.846 937.675 453.158 927.253 452.882 915.975 C 453.483 913.208 453.503 912.87 452.459 910.247 L 452.366 908.847 C 453.019 900.942 452.69 891.311 451.832 883.422 z"/>
<path transform="translate(0,0)" fill="rgb(95,54,164)" d="M 696.175 889.837 C 699.664 893.433 696.552 888.728 705.959 889.194 C 705.482 904.712 705.241 934.858 707.247 949.765 C 702.112 949.19 698.553 948.795 693.318 948.811 C 697.463 934.079 696.265 905.847 696.175 889.837 z"/>
<path transform="translate(0,0)" fill="rgb(112,77,162)" d="M 882.057 916.938 C 880.688 925.291 880.984 934.736 881.633 943.186 C 876.563 944.543 873.597 945.427 868.711 947.384 C 868.639 945.375 868.229 943.395 867.891 941.408 C 869.43 937.148 869.898 936.046 870.102 931.573 C 866.517 924.456 852.984 928.052 845.248 927.999 C 845.411 924.554 845.725 920.326 845.667 916.95 L 882.057 916.938 z"/>
<path transform="translate(0,0)" fill="rgb(72,40,125)" d="M 696.175 889.837 C 689.456 888.58 671.805 891.505 667.934 887.266 L 668.58 885.227 C 673.842 882.329 720.188 885.205 729.449 884.283 C 731.234 884.105 732.858 884.556 734.045 885.943 L 732.472 887.652 C 727.342 889.868 712.209 889.318 705.959 889.194 C 696.552 888.728 699.664 893.433 696.175 889.837 z"/>
<path transform="translate(0,0)" fill="rgb(95,54,164)" d="M 832.117 941.348 C 843.566 946.06 856.237 944.814 867.891 941.408 C 868.229 943.395 868.639 945.375 868.711 947.384 C 854.531 951.069 844.351 952.177 829.738 948.994 C 831.447 945.898 831.506 944.795 832.117 941.348 z"/>
<path transform="translate(0,0)" fill="rgb(72,40,125)" d="M 499.161 942.825 C 514.696 942.805 543.076 941.408 556.293 946.831 C 538.122 948.845 516.154 947.358 497.662 948.102 L 499.161 942.825 z"/>
<path transform="translate(0,0)" fill="rgb(76,65,113)" d="M 582.56 685.068 C 582.798 682.082 582.731 679.156 584.414 676.699 C 586.614 679.472 586.176 686.817 586.088 690.304 C 583.957 688.369 583.767 687.712 582.56 685.068 z"/>
</svg>